<?xml version="1.0" encoding="utf-8"?>
<!-- Svg Vector Icons : http://www.onlinewebfonts.com/icon -->
<!DOCTYPE svg PUBLIC "-//W3C//DTD SVG 1.1//EN" "http://www.w3.org/Graphics/SVG/1.1/DTD/svg11.dtd">
<svg version="1.1" xmlns="http://www.w3.org/2000/svg" xmlns:xlink="http://www.w3.org/1999/xlink" x="0px" y="0px" viewBox="0 0 1000 1000" enable-background="new 0 0 1000 1000" xml:space="preserve">
<metadata> Svg Vector Icons : http://www.onlinewebfonts.com/icon </metadata>
<g><g><path d="M277,38.7c0-16.9-13.7-30.6-30.6-30.6H40.6C23.7,8.1,10,21.8,10,38.7v206c0,16.9,13.7,30.6,30.6,30.6h206c16.9,0,30.6-13.7,30.6-30.6v-206H277z"/><path d="M633.5,38.7c0-16.9-13.7-30.6-30.6-30.6H397c-16.9,0-30.6,13.7-30.6,30.6v206c0,16.9,13.7,30.6,30.6,30.6h205.9c16.9,0,30.6-13.7,30.6-30.6V38.7z"/><path d="M989.9,38.7c0-16.9-13.7-30.6-30.6-30.6H753.4c-16.9,0-30.6,13.7-30.6,30.6v206c0,16.9,13.7,30.6,30.6,30.6h206c16.9,0,30.6-13.7,30.6-30.6v-206H989.9z"/><path d="M277,397.1c0-16.9-13.7-30.6-30.6-30.6H40.6c-16.9,0-30.6,13.7-30.6,30.6v205.9c0,16.9,13.7,30.6,30.6,30.6h206c16.9,0,30.6-13.7,30.6-30.6V397.1H277z"/><path d="M633.5,397.1c0-16.9-13.7-30.6-30.6-30.6H397c-16.9,0-30.6,13.7-30.6,30.6v205.9c0,16.9,13.7,30.6,30.6,30.6h205.9c16.9,0,30.6-13.7,30.6-30.6V397.1z"/><path d="M989.9,397.1c0-16.9-13.7-30.6-30.6-30.6H753.4c-16.9,0-30.6,13.7-30.6,30.6v205.9c0,16.9,13.7,30.6,30.6,30.6h206c16.9,0,30.6-13.7,30.6-30.6V397.1H989.9z"/><path d="M246.5,724.7H40.6c-16.9,0-30.6,13.7-30.6,30.6v206c0,16.9,13.7,30.6,30.6,30.6h206c16.9,0,30.6-13.7,30.6-30.6v-206C277,738.5,263.4,724.7,246.5,724.7z"/><path d="M602.9,724.7H397c-16.9,0-30.6,13.7-30.6,30.6v206c0,16.9,13.7,30.6,30.6,30.6h205.9c16.9,0,30.6-13.7,30.6-30.6v-206C633.5,738.5,619.8,724.7,602.9,724.7z"/><path d="M959.3,724.7H753.4c-16.9,0-30.6,13.7-30.6,30.6v206c0,16.9,13.7,30.6,30.6,30.6h206c16.9,0,30.6-13.7,30.6-30.6v-206C989.9,738.5,976.2,724.7,959.3,724.7z"/></g><g></g><g></g><g></g><g></g><g></g><g></g><g></g><g></g><g></g><g></g><g></g><g></g><g></g><g></g><g></g></g>
</svg>